<svg width="163" height="66" viewBox="0 0 163 66" fill="none" xmlns="http://www.w3.org/2000/svg">
<path d="M1 29.0986L1 65.8262L14.4013 59.282L14.4013 22.0202L1 29.0986Z" fill="url(#paint0_linear_8_83)" style="mix-blend-mode:multiply"/>
<path d="M1 29.0986L1 65.8262L14.4013 59.282L14.4013 22.0202L1 29.0986Z" stroke="url(#paint1_linear_8_83)" stroke-width="0.1"/>
<path d="M7.00024 15.1806V1L46 19.1178V34.2159L7.00024 15.1806Z" fill="url(#paint2_linear_8_83)" stroke="url(#paint3_linear_8_83)" stroke-width="0.1"/>
<path d="M19 34.2159V50.8238L45.9998 34.3574V19.2734L19 34.2159Z" fill="url(#paint4_linear_8_83)" stroke="url(#paint5_linear_8_83)" stroke-width="0.1"/>
<path d="M104.558 52.1364C103.973 52.1364 103.463 51.9901 103.028 51.6974C102.597 51.4048 102.261 51.0043 102.023 50.4957C101.784 49.9872 101.665 49.4077 101.665 48.7571C101.665 48.1009 101.786 47.517 102.027 47.0057C102.271 46.4943 102.609 46.0937 103.041 45.804C103.473 45.5114 103.974 45.3651 104.545 45.3651C104.983 45.3651 105.379 45.4503 105.734 45.6207C106.089 45.7884 106.382 46.0256 106.612 46.3324C106.845 46.6364 106.991 46.9915 107.051 47.3977H106.284C106.205 47.0284 106.013 46.7131 105.709 46.4517C105.408 46.1875 105.024 46.0554 104.558 46.0554C104.141 46.0554 103.771 46.169 103.45 46.3963C103.129 46.6207 102.878 46.9347 102.696 47.3381C102.517 47.7386 102.428 48.2031 102.428 48.7315C102.428 49.2628 102.516 49.733 102.692 50.142C102.868 50.5483 103.115 50.8665 103.433 51.0966C103.754 51.3267 104.129 51.4418 104.558 51.4418C104.848 51.4418 105.112 51.3878 105.351 51.2798C105.592 51.169 105.794 51.0128 105.956 50.8111C106.121 50.6094 106.232 50.3693 106.288 50.0909H107.055C106.999 50.4858 106.858 50.8381 106.634 51.1477C106.412 51.4545 106.124 51.696 105.768 51.8722C105.416 52.0483 105.013 52.1364 104.558 52.1364ZM111.405 52.1364C110.84 52.1364 110.34 51.9929 109.905 51.706C109.473 51.419 109.135 51.0227 108.891 50.517C108.647 50.0085 108.524 49.4219 108.524 48.7571C108.524 48.0866 108.647 47.4972 108.891 46.9886C109.135 46.4773 109.473 46.0795 109.905 45.7955C110.34 45.5085 110.84 45.3651 111.405 45.3651C111.97 45.3651 112.469 45.5085 112.901 45.7955C113.333 46.0824 113.671 46.4801 113.915 46.9886C114.162 47.4972 114.286 48.0866 114.286 48.7571C114.286 49.4219 114.164 50.0085 113.919 50.517C113.675 51.0227 113.336 51.419 112.901 51.706C112.469 51.9929 111.97 52.1364 111.405 52.1364ZM111.405 51.4418C111.86 51.4418 112.245 51.3196 112.56 51.0753C112.875 50.831 113.114 50.5057 113.276 50.0994C113.441 49.6932 113.523 49.2457 113.523 48.7571C113.523 48.2685 113.441 47.8196 113.276 47.4105C113.114 47.0014 112.875 46.6733 112.56 46.4261C112.245 46.179 111.86 46.0554 111.405 46.0554C110.953 46.0554 110.568 46.179 110.25 46.4261C109.935 46.6733 109.695 47.0014 109.53 47.4105C109.368 47.8196 109.287 48.2685 109.287 48.7571C109.287 49.2457 109.368 49.6932 109.53 50.0994C109.695 50.5057 109.935 50.831 110.25 51.0753C110.566 51.3196 110.951 51.4418 111.405 51.4418ZM116.889 47.9091V52H116.131V45.4545H116.868V46.4815H116.936C117.09 46.1463 117.328 45.8778 117.652 45.6761C117.979 45.4716 118.382 45.3693 118.862 45.3693C119.303 45.3693 119.689 45.4616 120.022 45.6463C120.357 45.8281 120.617 46.0966 120.801 46.4517C120.989 46.8068 121.083 47.2429 121.083 47.7599V52H120.324V47.8068C120.324 47.2699 120.174 46.8452 119.872 46.5327C119.574 46.2202 119.174 46.0639 118.671 46.0639C118.327 46.0639 118.022 46.1378 117.755 46.2855C117.487 46.4332 117.276 46.6463 117.12 46.9247C116.966 47.2003 116.889 47.5284 116.889 47.9091ZM127.658 46.8906L126.963 47.0866C126.895 46.8906 126.799 46.7131 126.674 46.554C126.549 46.3949 126.385 46.2685 126.183 46.1747C125.985 46.081 125.737 46.0341 125.442 46.0341C124.999 46.0341 124.635 46.1392 124.351 46.3494C124.067 46.5597 123.925 46.831 123.925 47.1634C123.925 47.4446 124.022 47.6733 124.215 47.8494C124.411 48.0227 124.712 48.1605 125.118 48.2628L126.107 48.5057C126.655 48.6392 127.066 48.8509 127.338 49.1406C127.614 49.4304 127.752 49.794 127.752 50.2315C127.752 50.6009 127.649 50.929 127.445 51.2159C127.24 51.5028 126.955 51.7287 126.588 51.8935C126.225 52.0554 125.803 52.1364 125.323 52.1364C124.683 52.1364 124.156 51.9929 123.742 51.706C123.327 51.4162 123.061 50.9986 122.945 50.4531L123.674 50.2741C123.767 50.6634 123.951 50.9574 124.223 51.1562C124.499 51.3551 124.861 51.4545 125.31 51.4545C125.813 51.4545 126.215 51.3423 126.516 51.1179C126.817 50.8906 126.968 50.6065 126.968 50.2656C126.968 50.0014 126.879 49.7798 126.703 49.6009C126.527 49.419 126.26 49.2855 125.902 49.2003L124.833 48.9446C124.264 48.8082 123.844 48.5923 123.571 48.2969C123.299 48.0014 123.162 47.6349 123.162 47.1974C123.162 46.8366 123.26 46.5199 123.456 46.2472C123.652 45.9716 123.922 45.7557 124.266 45.5994C124.61 45.4432 125.002 45.3651 125.442 45.3651C126.041 45.3651 126.52 45.5014 126.878 45.7741C127.239 46.044 127.499 46.4162 127.658 46.8906ZM133.752 49.4986V45.4545H134.51V52H133.752V50.9134H133.692C133.539 51.2486 133.296 51.5284 132.963 51.7528C132.631 51.9744 132.225 52.0852 131.745 52.0852C131.327 52.0852 130.956 51.9943 130.632 51.8125C130.308 51.6278 130.054 51.358 129.87 51.0028C129.685 50.6477 129.593 50.2116 129.593 49.6946V45.4545H130.351V49.6477C130.351 50.1591 130.502 50.571 130.803 50.8835C131.104 51.1932 131.49 51.348 131.962 51.348C132.257 51.348 132.541 51.277 132.814 51.1349C133.087 50.9929 133.311 50.7855 133.487 50.5128C133.664 50.2372 133.752 49.8991 133.752 49.4986ZM137.457 43.2727V52H136.698V43.2727H137.457ZM142.222 45.4545V46.1151H139.098V45.4545H142.222ZM140.074 43.8864H140.837V50.2912C140.837 50.5639 140.884 50.7784 140.978 50.9347C141.071 51.0881 141.194 51.1974 141.344 51.2628C141.495 51.3253 141.655 51.3565 141.826 51.3565C141.925 51.3565 142.01 51.3509 142.081 51.3395C142.152 51.3253 142.215 51.3111 142.269 51.2969L142.431 51.983C142.357 52.0114 142.266 52.0369 142.158 52.0597C142.05 52.0852 141.917 52.098 141.758 52.098C141.479 52.098 141.211 52.0369 140.952 51.9148C140.696 51.7926 140.486 51.6108 140.321 51.3693C140.157 51.1278 140.074 50.8281 140.074 50.4702V43.8864ZM144.133 52V45.4545H144.896V52H144.133ZM144.521 44.3295C144.365 44.3295 144.231 44.277 144.12 44.1719C144.01 44.0639 143.954 43.9347 143.954 43.7841C143.954 43.6335 144.01 43.5057 144.12 43.4006C144.231 43.2926 144.365 43.2386 144.521 43.2386C144.677 43.2386 144.811 43.2926 144.922 43.4006C145.032 43.5057 145.088 43.6335 145.088 43.7841C145.088 43.9347 145.032 44.0639 144.922 44.1719C144.811 44.277 144.677 44.3295 144.521 44.3295ZM147.841 47.9091V52H147.082V45.4545H147.819V46.4815H147.887C148.041 46.1463 148.279 45.8778 148.603 45.6761C148.93 45.4716 149.333 45.3693 149.814 45.3693C150.254 45.3693 150.64 45.4616 150.973 45.6463C151.308 45.8281 151.568 46.0966 151.752 46.4517C151.94 46.8068 152.034 47.2429 152.034 47.7599V52H151.275V47.8068C151.275 47.2699 151.125 46.8452 150.824 46.5327C150.525 46.2202 150.125 46.0639 149.622 46.0639C149.278 46.0639 148.973 46.1378 148.706 46.2855C148.439 46.4332 148.227 46.6463 148.071 46.9247C147.917 47.2003 147.841 47.5284 147.841 47.9091ZM156.708 54.5909C156.262 54.5909 155.872 54.5327 155.537 54.4162C155.201 54.3026 154.919 54.1463 154.689 53.9474C154.458 53.7486 154.279 53.5256 154.152 53.2784L154.774 52.8693C154.868 53.0341 154.993 53.196 155.149 53.3551C155.308 53.5142 155.514 53.6463 155.767 53.7514C156.022 53.8565 156.336 53.9091 156.708 53.9091C157.288 53.9091 157.755 53.7642 158.11 53.4744C158.468 53.1847 158.647 52.7344 158.647 52.1236V50.6491H158.579C158.491 50.848 158.365 51.0469 158.2 51.2457C158.035 51.4418 157.819 51.6051 157.552 51.7358C157.288 51.8665 156.96 51.9318 156.568 51.9318C156.045 51.9318 155.581 51.8026 155.174 51.544C154.771 51.2855 154.453 50.9162 154.22 50.4361C153.99 49.9531 153.875 49.3778 153.875 48.7102C153.875 48.0483 153.987 47.4659 154.211 46.9631C154.439 46.4602 154.755 46.0682 155.162 45.7869C155.568 45.5057 156.041 45.3651 156.581 45.3651C156.981 45.3651 157.314 45.4361 157.578 45.5781C157.842 45.7173 158.054 45.8906 158.213 46.098C158.375 46.3054 158.501 46.5071 158.592 46.7031H158.669V45.4545H159.41V52.1705C159.41 52.7244 159.292 53.1804 159.056 53.5384C158.821 53.8963 158.5 54.1605 158.093 54.331C157.687 54.5043 157.225 54.5909 156.708 54.5909ZM156.657 51.2372C157.078 51.2372 157.437 51.1364 157.735 50.9347C158.034 50.7301 158.262 50.4375 158.421 50.0568C158.581 49.6761 158.66 49.223 158.66 48.6974C158.66 48.1861 158.582 47.733 158.426 47.3381C158.27 46.9403 158.042 46.6278 157.744 46.4006C157.448 46.1705 157.086 46.0554 156.657 46.0554C156.22 46.0554 155.85 46.1733 155.549 46.4091C155.248 46.6449 155.021 46.9631 154.868 47.3636C154.714 47.7614 154.637 48.206 154.637 48.6974C154.637 49.1974 154.716 49.6392 154.872 50.0227C155.028 50.4034 155.257 50.7017 155.558 50.9176C155.859 51.1307 156.225 51.2372 156.657 51.2372Z" fill="white" fill-opacity="0.77"/>
<g filter="url(#filter0_d_8_83)">
<path fill-rule="evenodd" clip-rule="evenodd" d="M76.323 12V37.316H79.937V12H76.323ZM65.866 37.811C70.381 37.811 74.411 34.119 74.412 28.599C74.411 23.113 70.382 19.386 65.866 19.386C63.262 19.386 61.108 20.298 59.614 21.882V19.877H56V43.297H59.614V35.315C61.108 36.899 63.262 37.811 65.866 37.811V37.811ZM65.273 22.619C68.436 22.619 70.902 24.939 70.902 28.597C70.902 32.29 68.436 34.575 65.273 34.575C62.426 34.575 59.61 32.255 59.61 28.597C59.61 24.939 62.426 22.619 65.273 22.619V22.619ZM99.738 29.478H85.772C86.119 32.714 88.446 34.648 90.985 34.648C92.895 34.648 94.841 34.087 96.055 31.623L99.287 32.325C97.862 35.982 94.807 37.811 90.985 37.811C86.296 37.811 82.197 34.154 82.197 28.631C82.197 23.111 86.261 19.382 91.124 19.382C95.986 19.382 99.564 22.97 99.738 28.207V29.478V29.478ZM85.878 26.877H96.021C95.467 24.03 93.486 22.622 91.125 22.622C88.763 22.622 86.435 24.065 85.877 26.877H85.878ZM115.927 37.317H119.576V12H115.927V21.874C114.398 20.291 112.279 19.379 109.674 19.379C105.194 19.379 101.129 23.072 101.129 28.593C101.129 34.115 105.194 37.808 109.674 37.808C112.279 37.808 114.398 36.895 115.927 35.347V37.317ZM110.264 22.619C113.149 22.619 115.927 24.939 115.927 28.597C115.927 32.29 113.146 34.575 110.264 34.575C107.136 34.575 104.67 32.255 104.67 28.597C104.67 24.939 107.136 22.619 110.264 22.619V22.619ZM139.691 35.772C139.691 40.978 136.146 44 130.76 44C126.627 44 123.745 42.417 122.354 39.816L125.309 37.601C126.595 39.641 128.017 40.697 130.764 40.697C134.031 40.697 136.184 38.622 136.184 35.245V34.118C134.863 35.526 132.883 36.298 130.244 36.298C125.832 36.298 121.803 32.676 121.803 27.825C121.803 22.973 125.832 19.421 130.244 19.421C132.883 19.421 134.863 20.193 136.184 21.601V19.877H139.694V35.772H139.691ZM136.181 27.825C136.181 24.588 133.646 22.513 130.83 22.513C127.736 22.513 125.305 24.588 125.305 27.825C125.305 31.061 127.736 33.135 130.83 33.135C133.642 33.135 136.181 31.025 136.181 27.825ZM145.874 29.478H159.84V28.207C159.666 22.97 156.087 19.382 151.225 19.382C146.363 19.382 142.298 23.11 142.298 28.632C142.298 34.153 146.398 37.812 151.086 37.812C154.908 37.812 157.963 35.982 159.389 32.325L156.157 31.623C154.943 34.087 152.997 34.648 151.086 34.648C148.548 34.648 146.221 32.714 145.874 29.478V29.478ZM156.122 26.877H145.978C146.536 24.065 148.863 22.622 151.225 22.622C153.587 22.622 155.567 24.03 156.122 26.877Z" fill="white"/>
</g>
<defs>
<filter id="filter0_d_8_83" x="53" y="11" width="107.84" height="36" filterUnits="userSpaceOnUse" color-interpolation-filters="sRGB">
<feFlood flood-opacity="0" result="BackgroundImageFix"/>
<feColorMatrix in="SourceAlpha" type="matrix" values="0 0 0 0 0 0 0 0 0 0 0 0 0 0 0 0 0 0 127 0" result="hardAlpha"/>
<feOffset dx="-1" dy="1"/>
<feGaussianBlur stdDeviation="1"/>
<feComposite in2="hardAlpha" operator="out"/>
<feColorMatrix type="matrix" values="0 0 0 0 0.310293 0 0 0 0 0.0945312 0 0 0 0 0.504167 0 0 0 0.29 0"/>
<feBlend mode="normal" in2="BackgroundImageFix" result="effect1_dropShadow_8_83"/>
<feBlend mode="normal" in="SourceGraphic" in2="effect1_dropShadow_8_83" result="shape"/>
</filter>
<linearGradient id="paint0_linear_8_83" x1="16.1262" y1="16.9452" x2="4.43986" y2="63.3863" gradientUnits="userSpaceOnUse">
<stop offset="0.0070259" stop-color="#F559BA"/>
<stop offset="0.183014" stop-color="#FF5EA3"/>
<stop offset="0.356832" stop-color="#FD658A"/>
<stop offset="0.536022" stop-color="#FD7767"/>
<stop offset="0.682916" stop-color="#FC8740"/>
<stop offset="0.82001" stop-color="#FF8B38"/>
<stop offset="0.955509" stop-color="#FEA706"/>
</linearGradient>
<linearGradient id="paint1_linear_8_83" x1="7.70063" y1="22.0202" x2="7.70063" y2="65.8262" gradientUnits="userSpaceOnUse">
<stop stop-color="#FE5EA7"/>
<stop offset="1" stop-color="#FFA807"/>
</linearGradient>
<linearGradient id="paint2_linear_8_83" x1="46" y1="26.1674" x2="3.56216" y2="0.223134" gradientUnits="userSpaceOnUse">
<stop stop-color="#2F9BE8"/>
<stop offset="0.239583" stop-color="#2FACDE"/>
<stop offset="0.458333" stop-color="#2FB2DA"/>
<stop offset="0.677083" stop-color="#2FC3D0" stop-opacity="0.87"/>
<stop offset="0.854167" stop-color="#65E4EF"/>
</linearGradient>
<linearGradient id="paint3_linear_8_83" x1="46" y1="24.1234" x2="9.90627" y2="6.02806" gradientUnits="userSpaceOnUse">
<stop stop-color="#2F99E9"/>
<stop offset="0.287756" stop-color="#2FA5E2"/>
<stop offset="0.479167" stop-color="#2FAFDC"/>
<stop offset="0.607846" stop-color="#2FB4D8"/>
<stop offset="0.885417" stop-color="#2FBCD4"/>
<stop offset="1" stop-color="#2FC4CF"/>
</linearGradient>
<linearGradient id="paint4_linear_8_83" x1="17.5846" y1="48.2783" x2="46.3323" y2="27.6168" gradientUnits="userSpaceOnUse">
<stop offset="0.0625" stop-color="#F985B8"/>
<stop offset="0.21875" stop-color="#FE5EA5"/>
<stop offset="0.442098" stop-color="#E43E9F"/>
<stop offset="0.780289" stop-color="#991888" stop-opacity="0.86"/>
<stop offset="1" stop-color="#9E00B9" stop-opacity="0.6"/>
</linearGradient>
<linearGradient id="paint5_linear_8_83" x1="44.3871" y1="26.5089" x2="19.1432" y2="51.9866" gradientUnits="userSpaceOnUse">
<stop stop-color="#8C2C95"/>
<stop offset="0.981912" stop-color="#FD71B6"/>
</linearGradient>
</defs>
</svg>
